<svg width="36" height="36" viewBox="0 0 36 36" fill="none" xmlns="http://www.w3.org/2000/svg">
<rect width="36" height="36" rx="18" fill="#292D39" fill-opacity="0.05"/>
<mask id="path-2-inside-1_2013_85940" fill="white">
<path fill-rule="evenodd" clip-rule="evenodd" d="M10.5 10.5C9.67157 10.5 9 11.1716 9 12V21V22.5V27.7227C9 28.0481 9.36775 28.2373 9.6325 28.0482L14.25 24.75L15.3 24H25.5C26.3284 24 27 23.3284 27 22.5V12C27 11.1716 26.3284 10.5 25.5 10.5H10.5Z"/>
</mask>
<path d="M9.6325 28.0482L10.5043 29.2688L10.5044 29.2688L9.6325 28.0482ZM14.25 24.75L13.3781 23.5294L14.25 24.75ZM15.3 24V22.5C14.9874 22.5 14.6825 22.5977 14.4281 22.7794L15.3 24ZM10.5 12V12V9C8.84315 9 7.5 10.3431 7.5 12H10.5ZM10.5 21V12H7.5V21H10.5ZM10.5 22.5V21H7.5V22.5H10.5ZM10.5 27.7227V22.5H7.5V27.7227H10.5ZM8.76064 26.8276C9.48869 26.3076 10.5 26.828 10.5 27.7227H7.5C7.5 29.2681 9.24681 30.1671 10.5043 29.2688L8.76064 26.8276ZM13.3781 23.5294L8.76064 26.8276L10.5044 29.2688L15.1219 25.9706L13.3781 23.5294ZM14.4281 22.7794L13.3781 23.5294L15.1219 25.9706L16.1719 25.2206L14.4281 22.7794ZM25.5 22.5H15.3V25.5H25.5V22.5ZM25.5 22.5V25.5C27.1569 25.5 28.5 24.1569 28.5 22.5H25.5ZM25.5 12V22.5H28.5V12H25.5ZM25.5 12H28.5C28.5 10.3431 27.1569 9 25.5 9V12ZM10.5 12H25.5V9H10.5V12Z" fill="#03AB02" mask="url(#path-2-inside-1_2013_85940)"/>
</svg>
